<svg width="27" height="28" viewBox="0 0 27 28" fill="none" xmlns="http://www.w3.org/2000/svg">
<g filter="url(#filter0_d_56_1316)">
<rect x="2.5" y="1" width="24" height="24" rx="8" fill="white"/>
<path d="M14.4998 13.8333C14.9601 13.8333 15.3332 13.4602 15.3332 13C15.3332 12.5398 14.9601 12.1667 14.4998 12.1667C14.0396 12.1667 13.6665 12.5398 13.6665 13C13.6665 13.4602 14.0396 13.8333 14.4998 13.8333Z" stroke="#667085" stroke-width="1.67" stroke-linecap="round" stroke-linejoin="round"/>
<path d="M14.4998 7.99999C14.9601 7.99999 15.3332 7.6269 15.3332 7.16666C15.3332 6.70642 14.9601 6.33333 14.4998 6.33333C14.0396 6.33333 13.6665 6.70642 13.6665 7.16666C13.6665 7.6269 14.0396 7.99999 14.4998 7.99999Z" stroke="#667085" stroke-width="1.67" stroke-linecap="round" stroke-linejoin="round"/>
<path d="M14.4998 19.6667C14.9601 19.6667 15.3332 19.2936 15.3332 18.8333C15.3332 18.3731 14.9601 18 14.4998 18C14.0396 18 13.6665 18.3731 13.6665 18.8333C13.6665 19.2936 14.0396 19.6667 14.4998 19.6667Z" stroke="#667085" stroke-width="1.67" stroke-linecap="round" stroke-linejoin="round"/>
</g>
<defs>
<filter id="filter0_d_56_1316" x="0.5" y="0" width="28" height="28" filterUnits="userSpaceOnUse" color-interpolation-filters="sRGB">
<feFlood flood-opacity="0" result="BackgroundImageFix"/>
<feColorMatrix in="SourceAlpha" type="matrix" values="0 0 0 0 0 0 0 0 0 0 0 0 0 0 0 0 0 0 127 0" result="hardAlpha"/>
<feOffset dy="1"/>
<feGaussianBlur stdDeviation="1"/>
<feColorMatrix type="matrix" values="0 0 0 0 0.0627451 0 0 0 0 0.0941176 0 0 0 0 0.156863 0 0 0 0.05 0"/>
<feBlend mode="normal" in2="BackgroundImageFix" result="effect1_dropShadow_56_1316"/>
<feBlend mode="normal" in="SourceGraphic" in2="effect1_dropShadow_56_1316" result="shape"/>
</filter>
</defs>
</svg>
